<svg xmlns="http://www.w3.org/2000/svg" version="1.1" viewBox="-5.0 -10.0 110.0 135.0">
 <path d="m88.703 17.348-5.0195-1.6719c-2.5547-0.85156-5.3398 0.4375-6.3398 2.9414l-1.207 3.0078c-0.35156 0.88281-1.2656 1.375-2.2109 1.2031l-4.2578-0.85156c-0.59375-0.11719-1.1055-0.50781-1.375-1.0547l-3.2148-6.4297c-1.0938-2.1875-3.5938-3.3008-5.957-2.6172l-5.1172 1.4609c-1.5352 0.4375-2.75 1.543-3.3398 3.0273-0.58594 1.4844-0.45312 3.125 0.37109 4.4961l1.3125 2.1836c1.0742 1.793 1.7695 3.6758 2.0742 5.6016 1.375 8.6758 0.27344 15.68-3.168 20.289-0.13672-0.83984-0.55859-1.5898-1.2344-2.1094-0.70312-0.54297-1.5781-0.78516-2.457-0.66797l-5.2422 0.67188c-0.64453 0.078125-1.1992 0.39062-1.6836 0.79688-0.57031-0.27344-1.1875-0.4375-1.832-0.35547l-5.2617 0.67188c-0.65234 0.082032-1.1953 0.39844-1.6641 0.79297-0.55859-0.26953-1.1719-0.44141-1.832-0.35156l-5.2695 0.67188c-0.65234 0.085937-1.1914 0.40234-1.6641 0.79687-0.57031-0.27344-1.1836-0.4375-1.832-0.35547l-5.2617 0.67188c-0.87891 0.11328-1.6602 0.56641-2.207 1.2695-0.54297 0.70312-0.77734 1.5703-0.66406 2.4375l0.84766 6.6523c-0.51953 0.80078-0.87891 1.7188-0.87891 2.7422v2.6992c0 2.918-0.79297 5.7812-2.2969 8.2812l-0.96484 1.6094c-1.3359 2.2266-2.0391 4.7734-2.0391 7.3633 0 2.8125 2.2852 5.0977 5.0938 5.0977h5.3008c3.5 0 7.9453-1.9062 13.578-4.3203 3.5-1.5 7.4648-3.1992 11.645-4.5898 3.8281-1.2773 7.668-2.0859 11.383-2.8672 6.4727-1.3633 12.586-2.6484 17.32-6.1992 3.918-2.9375 6.5273-11.57 9.5508-21.566 2.7695-9.1484 5.6289-18.609 9.5898-23.902 0.60156-0.80078 0.91797-1.7344 0.91797-2.6953 0-2.1953-1.4023-4.1367-3.4844-4.8359zm-40.52 32.09 0.28906 2.2578c-1.5312 1.1758-3.3008 2.0938-5.3516 2.6992l-0.41406-4.4688zm-8.7617 1.1094 0.56641 4.4844c-0.26172 0.039062-0.49219 0.11719-0.76172 0.14453-1.5547 0.17188-3.1875 0.375-4.8398 0.58594l-0.46094-4.7227 5.4922-0.49219zm-8.7617 1.1172 0.58984 4.5156c-1.9258 0.26172-3.8164 0.53125-5.625 0.79687l-0.46094-4.8281 5.4922-0.48438zm-8.7617 1.1094 0.58594 4.6758c-1.9492 0.29688-3.7109 0.57031-5.0938 0.79297-0.16797 0.027343-0.30469 0.12109-0.46875 0.16406l-0.51953-5.1367 5.4922-0.49219zm66.867-29.77c-4.2891 5.7344-7.2344 15.465-10.078 24.871-2.6211 8.6758-5.3359 17.645-8.4336 19.969-4.1797 3.1367-9.9648 4.3516-16.09 5.6445-3.8008 0.80078-7.7305 1.625-11.727 2.957-4.3047 1.4336-8.332 3.1602-11.887 4.6836-5.0938 2.1836-9.4922 4.0664-12.348 4.0664h-5.3008c-1.0859 0-1.9688-0.88672-1.9688-1.9727 0-2.0273 0.55078-4.0156 1.5938-5.7578l0.96484-1.6055c1.793-2.9883 2.7422-6.4062 2.7422-9.8906v-2.6992c0-0.97266 0.69141-1.793 1.6484-1.9414 4.8828-0.78125 14.191-2.2109 21.688-3.043 0.71094-0.078125 1.3359-0.26562 2.0078-0.39062 0.050781 0.003907 0.097656 0.027344 0.14844 0.027344 0.066407 0 0.13281-0.003906 0.19922-0.011719 0.21094-0.027344 0.40234-0.097656 0.57812-0.19531 3.4141-0.77344 6.3398-2.1367 8.6797-4.1719 0.082031-0.074219 0.16016-0.14453 0.22266-0.23438 0.79688-0.72266 1.5703-1.4727 2.2344-2.3438 4.0469-5.3047 5.3789-13.191 3.8594-22.805-0.37109-2.3242-1.2031-4.582-2.4844-6.7188v-0.003906l-1.3125-2.1836c-0.31641-0.52734-0.37109-1.1641-0.14453-1.7383 0.23047-0.57422 0.69922-1 1.293-1.1719l5.1172-1.4609c0.17969-0.050781 0.35938-0.078124 0.53906-0.078124 0.73047 0 1.4219 0.41016 1.7617 1.0898l3.2148 6.4258c0.69531 1.3984 2.0273 2.418 3.5625 2.7227l4.2578 0.85156c2.4062 0.48438 4.8203-0.82422 5.7266-3.1055l1.207-3.0078c0.39062-0.96875 1.4727-1.4648 2.4531-1.1367l5.0195 1.6719c0.80469 0.26953 1.3477 1.0195 1.3477 1.8672 0 0.28516-0.10156 0.55859-0.29688 0.82031z"/>
<text x="0.0" y="117.5" font-size="5.0" font-weight="bold" font-family="Arbeit Regular, Helvetica, Arial-Unicode, Arial, Sans-serif" fill="#5a3b1e" color="#5a3b1e">Created by kusuma potter</text><text x="0.0" y="122.5" font-size="5.0" font-weight="bold" font-family="Arbeit Regular, Helvetica, Arial-Unicode, Arial, Sans-serif" fill="#5a3b1e" color="#5a3b1e">from Noun Project</text></svg>